<svg xmlns="http://www.w3.org/2000/svg" viewBox="0 0 40.001 40"><defs><style>.a{fill:#a1a6a8;}</style></defs><path class="a" d="M115.072,104.573a2.977,2.977,0,0,0-.742-1.136,3.118,3.118,0,0,0-1.137-.742,5.443,5.443,0,0,0-1.832-.336c-1.044-.046-1.357-.058-3.978-.058s-2.946.012-3.978.058a5.761,5.761,0,0,0-1.832.336,2.977,2.977,0,0,0-1.137.742,3.118,3.118,0,0,0-.742,1.136,5.443,5.443,0,0,0-.336,1.832c-.046,1.044-.058,1.357-.058,3.978s.012,2.946.058,3.978a5.76,5.76,0,0,0,.336,1.832,2.977,2.977,0,0,0,.742,1.136,3.118,3.118,0,0,0,1.137.742,5.443,5.443,0,0,0,1.832.336c1.044.046,1.345.058,3.978.058s2.946-.012,3.978-.058a5.762,5.762,0,0,0,1.832-.336,2.977,2.977,0,0,0,1.137-.742,3.118,3.118,0,0,0,.742-1.136,5.443,5.443,0,0,0,.336-1.832c.046-1.044.058-1.357.058-3.978s-.012-2.946-.058-3.978A5.159,5.159,0,0,0,115.072,104.573Zm-7.689,10.866a5.056,5.056,0,1,1,5.056-5.056A5.053,5.053,0,0,1,107.383,115.439Zm5.265-9.138a1.183,1.183,0,1,1,1.183-1.183A1.188,1.188,0,0,1,112.648,106.3Z" transform="translate(-87.347 -89.986)"/><ellipse class="a" cx="3.282" cy="3.282" rx="3.282" ry="3.282" transform="translate(16.754 17.111)"/><path class="a" d="M20,0A20,20,0,1,0,40,20,20,20,0,0,0,20,0ZM30.054,24.541a7.058,7.058,0,0,1-.474,2.442,5.109,5.109,0,0,1-1.162,1.79,5,5,0,0,1-1.79,1.162,7.66,7.66,0,0,1-2.442.474c-1.079.047-1.423.059-4.149.059s-3.082-.012-4.149-.059a7.058,7.058,0,0,1-2.442-.474,5.109,5.109,0,0,1-1.79-1.162,5,5,0,0,1-1.162-1.79,7.659,7.659,0,0,1-.474-2.442c-.047-1.079-.059-1.423-.059-4.149s.012-3.082.059-4.149a7.057,7.057,0,0,1,.474-2.442,5.109,5.109,0,0,1,1.162-1.79,5,5,0,0,1,1.79-1.162,7.66,7.66,0,0,1,2.442-.474c1.079-.047,1.423-.059,4.149-.059s3.082.012,4.149.059a7.058,7.058,0,0,1,2.442.474,5.109,5.109,0,0,1,1.79,1.162A5,5,0,0,1,29.58,13.8a7.66,7.66,0,0,1,.474,2.442c.047,1.079.059,1.423.059,4.149S30.1,23.474,30.054,24.541Z" transform="translate(0)"/></svg>