<svg xmlns="http://www.w3.org/2000/svg" xmlns:xlink="http://www.w3.org/1999/xlink" width="16" height="14.001" viewBox="0 0 16 14.001">
  <defs>
    <clipPath id="clip-path">
      <rect width="16" height="14.001" fill="none"/>
    </clipPath>
  </defs>
  <g id="menu_icon" data-name="menu icon" clip-path="url(#clip-path)">
    <path id="menu_icon-2" data-name="menu icon" d="M-6407-6020a1,1,0,0,1-1-1,1,1,0,0,1,1-1h14a1,1,0,0,1,1,1,1,1,0,0,1-1,1Zm0-6a1,1,0,0,1-1-1,1,1,0,0,1,1-1h8a1,1,0,0,1,1,1,1,1,0,0,1-1,1Zm0-6a1,1,0,0,1-1-1,1,1,0,0,1,1-1h14a1,1,0,0,1,1,1,1,1,0,0,1-1,1Z" transform="translate(6408 6034)" fill="#343638"/>
  </g>
</svg>
