<svg xmlns="http://www.w3.org/2000/svg" viewBox="0 0 40.001 40.001"><defs><style>.a{fill:#a1a6a8;}</style></defs><path class="a" d="M20,0A20,20,0,1,0,40,20,20,20,0,0,0,20,0Zm9.71,16.384c.012.19.012.391.012.593A13.126,13.126,0,0,1,16.5,30.2a12.976,12.976,0,0,1-7.1-2.1,8.607,8.607,0,0,0,1.1.071,9.392,9.392,0,0,0,5.774-1.98,4.648,4.648,0,0,1-4.339-3.225,4.316,4.316,0,0,0,.877.083,4.535,4.535,0,0,0,1.221-.166,4.642,4.642,0,0,1-3.723-4.553v-.059a4.667,4.667,0,0,0,2.1.581,4.618,4.618,0,0,1-2.075-3.865,4.71,4.71,0,0,1,.628-2.336,13.222,13.222,0,0,0,9.579,4.861,4.434,4.434,0,0,1-.13-1.055,4.655,4.655,0,0,1,4.647-4.647,4.589,4.589,0,0,1,3.391,1.47,9.466,9.466,0,0,0,2.952-1.126,4.641,4.641,0,0,1-2.039,2.573,9.448,9.448,0,0,0,2.668-.735A9.492,9.492,0,0,1,29.71,16.384Z"/></svg>