<svg xmlns="http://www.w3.org/2000/svg" viewBox="0 0 40.001 40"><defs><style>.a{fill:#a1a6a8;}</style></defs><path class="a" d="M150.1,148.415l5.45-3.108L150.1,142.2Z" transform="translate(-132.242 -125.272)"/><path class="a" d="M20,0A20,20,0,1,0,40,20,20,20,0,0,0,20,0ZM30.2,25.2a2.694,2.694,0,0,1-1.885,1.9c-1.66.451-8.334.451-8.334.451s-6.675,0-8.334-.451a2.694,2.694,0,0,1-1.885-1.9,27.822,27.822,0,0,1-.451-5.169,27.822,27.822,0,0,1,.451-5.169,2.694,2.694,0,0,1,1.885-1.9c1.66-.451,8.334-.451,8.334-.451s6.675,0,8.334.451a2.694,2.694,0,0,1,1.885,1.9,27.822,27.822,0,0,1,.451,5.169A27.822,27.822,0,0,1,30.2,25.2Z" transform="translate(0 0)"/></svg>